<svg xmlns="http://www.w3.org/2000/svg" xml:space="preserve" fill-rule="evenodd" stroke-linejoin="round" stroke-miterlimit="2" clip-rule="evenodd" viewBox="0 0 1400 1000">
<path d="M892.577 33.72S149.4 30.196 41.697 418.64C-27.46 668.067 379.655 774.09 505.815 755.68c15.028-2.2 79.194-186.939 79.194-186.939s24.519-144.596 183.248-129.228c23.18 2.244 105.22 251.688 122.48 273.804 23.03 29.513 57.67 23.993 71.83-7.367 5.42-12.017-110.51-252.317-111.43-267.972-.92-15.654 343.961-34.484 364.661 69.065C1269.037 773.32 574.356 900.63 495.07 911.46c-52.738 7.2-88.753 27.49-123.593 49.54-4.563 2.89 330.546 29.82 626.12-73.33 199.4-69.59 390.79-251.214 366.46-353.001-54.34-227.337-533.15-168.19-537.68-172.734-7.6-7.625-18.64-33.032-26.81-57.482-5.57-16.685-36.83-110.503-58.012-119.712-21.18-9.208-36.135 10.598-18.883 89.312 6.624 30.219 37.834 94.226 25.943 102.842-7.467 5.41-93.314 17.68-93.314 17.68s9.09-63.194 34.685-110.381c8.031-14.804 9.437-76.993 10.016-95.376.37-11.76-36.023-9.107-42.246 9.736-21.102 63.9-28.736 126.146-73.895 188.22-53.757 73.893-113.7 78.977-136.602 89.905-12.255 5.848.06 15.422.06 15.422s92.174-16.428 94.789-9.921c7.562 18.817-66.683 174.043-66.683 174.043s-11.42 47.83-43.28 39.597C290.727 659.276 150.95 590.337 167.732 420.647c13.644-137.98 308.38-322.815 806.805-317.556 12.82.136 29.22-16.311 22.88-25.636-2.28-3.345-25 1.233-38.8-6.944-19.86-11.761-66.04-36.791-66.04-36.791Z"/>
</svg>