<svg xmlns="http://www.w3.org/2000/svg" xml:space="preserve" fill-rule="evenodd" stroke-linejoin="round" stroke-miterlimit="2" clip-rule="evenodd" viewBox="0 0 440 300"><path d="M281.95 0S42.875-1.134 8.228 123.827C-14.02 204.066 116.947 238.173 157.531 232.25c4.835-.707 25.476-60.137 25.476-60.137s7.888-46.516 58.95-41.572c7.457.722 33.849 80.967 39.401 88.081 7.409 9.495 18.552 7.719 23.108-2.37 1.743-3.865-35.55-81.168-35.847-86.205-.296-5.035 110.65-11.093 117.31 22.218 17.126 85.66-206.348 126.615-231.854 130.099-16.966 2.316-28.551 8.843-39.759 15.937-1.468.93 106.334 9.592 201.418-23.59 64.146-22.387 125.715-80.814 117.888-113.559-17.48-73.133-171.51-54.105-172.968-55.567-2.445-2.453-5.996-10.626-8.625-18.492-1.791-5.367-11.848-35.548-18.661-38.51-6.814-2.963-11.625 3.409-6.075 28.73 2.131 9.722 12.171 30.313 8.346 33.084-2.402 1.74-30.019 5.688-30.019 5.688s2.924-20.33 11.158-35.509c2.584-4.762 3.036-24.768 3.222-30.682.12-3.783-11.588-2.93-13.59 3.132-6.788 20.557-9.244 40.58-23.772 60.55-17.293 23.77-36.576 25.406-43.944 28.921-3.942 1.882.02 4.962.02 4.962s29.651-5.285 30.493-3.192c2.432 6.053-21.452 55.989-21.452 55.989s-3.674 15.386-13.923 12.738c-45.493-11.756-90.458-33.934-85.06-88.522 4.39-44.387 99.205-103.847 259.544-102.156 4.124.044 9.4-5.247 7.36-8.247-.733-1.076-8.042.397-12.481-2.233C296.806 8.052 281.95 0 281.95 0Z"/></svg>